<svg version="1.1" xmlns="http://www.w3.org/2000/svg" viewBox="0 0 870.8158479798597 364.4769719951529" width="2612.447543939579" height="1093.4309159854588">
  <!-- svg-source:excalidraw -->
  
  <defs>
    <style>
      @font-face {
        font-family: "Virgil";
        src: url("https://excalidraw.com/Virgil.woff2");
      }
      @font-face {
        font-family: "Cascadia";
        src: url("https://excalidraw.com/Cascadia.woff2");
      }
    </style>
  </defs>
  <rect x="0" y="0" width="870.8158479798597" height="364.4769719951529" fill="#ffffff"></rect><g stroke-linecap="round" transform="translate(466.9609375 10) rotate(0 66.19831460674158 35.47892512015281)"><path d="M17.88 -0.29 L113.4 0.15 L126.26 1.47 L130.86 7.24 L133.23 11.76 L131 52.56 L130.27 64.14 L121.58 70.98 L114.4 71.16 L16.76 70.07 L7.25 68.9 L3.97 62.37 L1.37 56.78 L-1.01 15.03 L5.41 2.73 L11.82 -0.23 L18.5 -1.1" stroke="none" stroke-width="0" fill="#15aabf"></path><path d="M17.74 0 M17.74 0 C42.91 0.15, 63.28 0.24, 114.66 0 M17.74 0 C42.51 -0.8, 69.59 -1.04, 114.66 0 M114.66 0 C128.29 -1.29, 134.27 4.13, 132.4 17.74 M114.66 0 C126.4 -0.79, 132.68 6.22, 132.4 17.74 M132.4 17.74 C133.22 26.96, 133.52 33.19, 132.4 53.22 M132.4 17.74 C132.46 24.74, 133.26 32.84, 132.4 53.22 M132.4 53.22 C134.08 65.02, 128.25 69.65, 114.66 70.96 M132.4 53.22 C131.92 66.94, 127.53 70.17, 114.66 70.96 M114.66 70.96 C90.29 69.86, 62.9 71.73, 17.74 70.96 M114.66 70.96 C84.82 71.64, 54.13 70.65, 17.74 70.96 M17.74 70.96 C5.48 70.45, 1.57 66.31, 0 53.22 M17.74 70.96 C4.74 73.15, 2 65.53, 0 53.22 M0 53.22 C0.22 40.36, -0.58 26.56, 0 17.74 M0 53.22 C-0.85 43.28, -1.2 32.4, 0 17.74 M0 17.74 C1.3 4.45, 3.95 -1.71, 17.74 0 M0 17.74 C1.52 7.02, 8.17 0.47, 17.74 0" stroke="#0b7285" stroke-width="1" fill="none"></path></g><g transform="translate(482.1103780238236 14.752058400962937) rotate(0 46.5 9.5)"><text x="0" y="13" font-family="Virgil, Segoe UI Emoji" font-size="15.101972265621837px" fill="#fff" text-anchor="start" style="white-space: pre;" direction="ltr">tree_sha_3</text></g><g transform="translate(505.80573648174163 41.24650324515284) rotate(0 25.384765625 15.058759269067792)"><text x="25.384765625" y="21.11751853813559" font-family="Virgil, Segoe UI Emoji" font-size="24.09401483050847px" fill="#fff" text-anchor="middle" style="white-space: pre;" direction="ltr">tree</text></g><g stroke-linecap="round" transform="translate(713.9950447682584 33.29255925484722) rotate(0 71.84319172985988 35.63623176306396)"><path d="M17.14 1.68 L126.98 -1.29 L135.05 1.72 L143.08 5.91 L144.11 13.51 L143.42 52.42 L141.47 63.42 L134.91 70.56 L125.74 69.29 L18.52 72.33 L8.05 70.05 L3.18 63.28 L-1.19 56.77 L-0.36 13.99 L6.12 5.93 L9.97 -0.3 L18.7 -0.28" stroke="none" stroke-width="0" fill="#868e96"></path><path d="M17.82 0 M17.82 0 C59.38 0.28, 97.34 0.83, 125.87 0 M17.82 0 C58.79 -0.52, 101.14 0.84, 125.87 0 M125.87 0 C139.71 0.67, 143.85 7.44, 143.69 17.82 M125.87 0 C138.97 -2.24, 145.65 5.58, 143.69 17.82 M143.69 17.82 C145.16 31.57, 145.66 44.69, 143.69 53.45 M143.69 17.82 C144.06 29.56, 144.18 40.17, 143.69 53.45 M143.69 53.45 C144.84 63.53, 139.74 71.72, 125.87 71.27 M143.69 53.45 C143.44 63.6, 138.49 70.57, 125.87 71.27 M125.87 71.27 C97.89 71.85, 68.26 70.81, 17.82 71.27 M125.87 71.27 C90.55 71.84, 57.34 71.76, 17.82 71.27 M17.82 71.27 C7.17 70.6, 0.21 65.22, 0 53.45 M17.82 71.27 C7.66 69.15, 1.11 66.63, 0 53.45 M0 53.45 C-2.2 43.02, -0.99 36.79, 0 17.82 M0 53.45 C0.84 43.08, -0.55 34.02, 0 17.82 M0 17.82 C0.84 4.69, 5.35 -0.44, 17.82 0 M0 17.82 C-1.94 7.32, 8.09 -1.18, 17.82 0" stroke="#868e96" stroke-width="1" fill="none"></path></g><g transform="translate(727.5623474262318 43.39861342709321) rotate(0 43 9)"><text x="0" y="13" font-family="Virgil, Segoe UI Emoji" font-size="14.708512004130014px" fill="#fff" text-anchor="start" style="white-space: pre;" direction="ltr">blob_sha_3</text></g><g transform="translate(743.6145741891146 72.52382459883916) rotate(0 38.5 8.5)"><text x="38.5" y="12" font-family="Virgil, Segoe UI Emoji" font-size="13.277959916573481px" fill="#fff" text-anchor="middle" style="white-space: pre;" direction="ltr">"content_3"</text></g><g stroke-linecap="round" transform="translate(714.5094345671598 152.25479449848785) rotate(0 72.01338042507973 34.40601062333258)"><path d="M16.04 -0.53 L126.79 1.67 L139.17 2.15 L140.81 5.31 L142.64 14.48 L144.88 52.84 L142.49 62.32 L136.75 67.23 L127.26 69.28 L17.3 68.4 L8.44 66.29 L2.95 62.63 L-1.24 55.93 L1.34 14.86 L4.41 5.62 L8.28 2.98 L18.73 -1.42" stroke="none" stroke-width="0" fill="#868e96"></path><path d="M17.2 0 M17.2 0 C55.11 -1.45, 89.52 -1.18, 126.82 0 M17.2 0 C48.26 -0.69, 80.13 -1.33, 126.82 0 M126.82 0 C138.28 -1.62, 142.5 7.21, 144.03 17.2 M126.82 0 C138.82 -0.78, 142.02 5.11, 144.03 17.2 M144.03 17.2 C142.1 27.79, 143.52 36.85, 144.03 51.61 M144.03 17.2 C143.6 26.91, 143.9 35.85, 144.03 51.61 M144.03 51.61 C144.48 62.68, 139.82 66.83, 126.82 68.81 M144.03 51.61 C144.6 64.43, 139.85 70.83, 126.82 68.81 M126.82 68.81 C102.44 70.93, 73.21 70.47, 17.2 68.81 M126.82 68.81 C84.8 67.72, 45.28 68.81, 17.2 68.81 M17.2 68.81 C4.38 70.42, -1.35 64.57, 0 51.61 M17.2 68.81 C4.32 71.03, 1.08 62.39, 0 51.61 M0 51.61 C-0.58 43.62, 1.24 33.54, 0 17.2 M0 51.61 C-1.01 38.33, 0.88 26.1, 0 17.2 M0 17.2 C1.1 3.91, 5.14 -0.79, 17.2 0 M0 17.2 C-0.85 7.99, 6.79 -0.7, 17.2 0" stroke="#868e96" stroke-width="1" fill="none"></path></g><g transform="translate(724.7702140037206 162.83089363848364) rotate(0 43.56830597625674 9.54353369003718)"><text x="0" y="14.087067380074377" font-family="Virgil, Segoe UI Emoji" font-size="14.708512004130029px" fill="#fff" text-anchor="start" style="white-space: pre;" direction="ltr">blob_sha_2</text></g><g transform="translate(744.6093914714052 189.89439033099632) rotate(0 39.00400725493466 8.298724947858432)"><text x="39.00400725493462" y="11.597449895716856" font-family="Virgil, Segoe UI Emoji" font-size="13.277959916573485px" fill="#fff" text-anchor="middle" style="white-space: pre;" direction="ltr">"content_2"</text></g><g stroke-linecap="round" transform="translate(22.51953125 28.33203125) rotate(0 88.580078125 18.927734375)"><path d="M10.31 -1.5 L173.54 0.29 L175.05 5.98 L175.37 31.58 L173.73 37.34 L166.65 38.05 L7.13 37.51 L1.09 30.62 L1.15 8.05 L0.55 0.61 L10.88 0.13" stroke="none" stroke-width="0" fill="#fa5252"></path><path d="M9.46 0 M9.46 0 C51.4 -2.02, 91.98 -2.35, 167.7 0 M9.46 0 C64.26 -0.66, 118.28 -0.76, 167.7 0 M167.7 0 C172.75 -0.04, 177.11 4.07, 177.16 9.46 M167.7 0 C174.21 -1.6, 178.23 5.15, 177.16 9.46 M177.16 9.46 C176.32 17.19, 176.61 22.23, 177.16 28.39 M177.16 9.46 C176.88 13.33, 176.79 18.94, 177.16 28.39 M177.16 28.39 C175.86 34.11, 173.58 36.06, 167.7 37.86 M177.16 28.39 C178.52 35.48, 172.63 39.06, 167.7 37.86 M167.7 37.86 C126.35 37.63, 86.8 36.73, 9.46 37.86 M167.7 37.86 C112.67 37.46, 57.03 37.98, 9.46 37.86 M9.46 37.86 C4.64 36.58, -0.34 35.73, 0 28.39 M9.46 37.86 C1.67 40.1, 2.11 35.97, 0 28.39 M0 28.39 C0.86 20.4, 1.43 12.54, 0 9.46 M0 28.39 C0.53 23.55, -0.19 20.34, 0 9.46 M0 9.46 C1.55 2.97, 1.47 0.44, 9.46 0 M0 9.46 C2.16 4.63, 4.91 -0.94, 9.46 0" stroke="#c92a2a" stroke-width="1" fill="none"></path></g><g transform="translate(35.8515625 37.0390625) rotate(0 65 10)"><text x="0" y="14" font-family="Virgil, Segoe UI Emoji" font-size="16px" fill="#fff" text-anchor="start" style="white-space: pre;" direction="ltr">refs/heads/head</text></g><g stroke-linecap="round"><g transform="translate(212.54763757470118 46.547530583639514) rotate(0 20.231768059154717 -0.27756691640314557)"><path d="M-0.29 -0.16 C6.51 -0.25, 34.04 -0.58, 40.75 -0.42 M1.76 -1.28 C8.45 -1.25, 33.84 0.73, 40.06 0.73" stroke="#868e96" stroke-width="1" fill="none"></path></g><g transform="translate(212.54763757470118 46.547530583639514) rotate(0 20.231768059154717 -0.27756691640314557)"><path d="M20.6 7.59 C25.29 4.61, 33.01 2.6, 41.58 -0.66 M20.19 6.09 C25.64 4.19, 31.56 4.16, 39.12 1.47" stroke="#868e96" stroke-width="1" fill="none"></path></g><g transform="translate(212.54763757470118 46.547530583639514) rotate(0 20.231768059154717 -0.27756691640314557)"><path d="M21.2 -6.17 C25.73 -5.09, 33.27 -3.03, 41.58 -0.66 M20.8 -7.67 C26.2 -5.75, 31.96 -1.97, 39.12 1.47" stroke="#868e96" stroke-width="1" fill="none"></path></g></g><g stroke-linecap="round" transform="translate(258.41796875 11.34375) rotate(0 73.509765625 33.330078125)"><path d="M17.21 1.14 L131.64 1.43 L138.96 2.74 L143.83 5.82 L148.68 11.89 L146.6 49.55 L142.77 58.36 L139.99 66.04 L131.01 67.57 L16.99 68.49 L8.37 65.29 L2.51 60.47 L0.8 52.45 L1.85 10.84 L2.23 4.42 L9.14 1.47 L15.05 -0.88" stroke="none" stroke-width="0" fill="#fab005"></path><path d="M16.67 0 M16.67 0 C40.42 1.83, 65.27 0, 130.35 0 M16.67 0 C55.69 1.53, 92.18 1.42, 130.35 0 M130.35 0 C141.65 0.33, 147.03 7.41, 147.02 16.67 M130.35 0 C140.7 2.21, 147.73 5.53, 147.02 16.67 M147.02 16.67 C146.9 24.9, 145.7 33.93, 147.02 50 M147.02 16.67 C147.87 24.82, 146.23 34.08, 147.02 50 M147.02 50 C147.96 60.86, 140.68 66.04, 130.35 66.66 M147.02 50 C148.2 62.14, 140.86 67.59, 130.35 66.66 M130.35 66.66 C95.99 67.07, 67.53 66.89, 16.67 66.66 M130.35 66.66 C97.88 67.32, 64.94 66.53, 16.67 66.66 M16.67 66.66 C7.45 66.33, -1.85 61.03, 0 50 M16.67 66.66 C3.66 66.2, -2.16 59.23, 0 50 M0 50 C0.11 37.86, -0.18 29.13, 0 16.67 M0 50 C0.95 42.48, 0.72 34.41, 0 16.67 M0 16.67 C-1.94 4.07, 6.67 -1.21, 16.67 0 M0 16.67 C-0.54 7.39, 4.77 -0.14, 16.67 0" stroke="#e67700" stroke-width="1" fill="none"></path></g><g transform="translate(268.53515625 15.03515625) rotate(0 57 10)"><text x="0" y="14" font-family="Virgil, Segoe UI Emoji" font-size="16px" fill="#fff" text-anchor="start" style="white-space: pre;" direction="ltr">commit_sha_3</text></g><g transform="translate(275.916015625 43.310546875) rotate(0 57 10)"><text x="57" y="14" font-family="Virgil, Segoe UI Emoji" font-size="16px" fill="#fff" text-anchor="middle" style="white-space: pre;" direction="ltr">commit_msg_3</text></g><g stroke-linecap="round"><g transform="translate(409.594365258566 46.33799358614408) rotate(0 22.86933108931794 0.3011668046140983)"><path d="M-0.44 0.87 C7.07 0.92, 38.24 -0.07, 46.17 -0.44 M1.54 0.29 C8.75 0.59, 37.5 1.15, 45.04 1.02" stroke="#868e96" stroke-width="1" fill="none"></path></g><g transform="translate(409.594365258566 46.33799358614408) rotate(0 22.86933108931794 0.3011668046140983)"><path d="M24.61 8.31 C31.59 6.97, 38.8 4.18, 45.6 -0.36 M22.9 8.8 C29.37 6.98, 37.22 5.09, 44.36 1.16" stroke="#868e96" stroke-width="1" fill="none"></path></g><g transform="translate(409.594365258566 46.33799358614408) rotate(0 22.86933108931794 0.3011668046140983)"><path d="M24.67 -7.6 C31.53 -2.64, 38.72 0.86, 45.6 -0.36 M22.95 -7.11 C29.32 -4.19, 37.16 -1.34, 44.36 1.16" stroke="#868e96" stroke-width="1" fill="none"></path></g></g><g stroke-linecap="round" transform="translate(463.93449789325837 148.28865300484722) rotate(0 66.19831460674158 35.47892512015281)"><path d="M17.69 -0.03 L115.39 0.67 L123.62 0.97 L128.2 6.11 L131.78 12.85 L132.44 54.2 L129.28 63.49 L121.07 71.74 L113.4 69.55 L17.07 69.13 L8.68 67.1 L2.37 62.55 L-0.74 57.38 L-1.08 13.65 L4.01 6 L8.52 1.5 L16.95 0.59" stroke="none" stroke-width="0" fill="#15aabf"></path><path d="M17.74 0 M17.74 0 C43 0.12, 68.45 -0.85, 114.66 0 M17.74 0 C48.67 -0.14, 79.49 -0.06, 114.66 0 M114.66 0 C126.3 -1.48, 132.71 7.1, 132.4 17.74 M114.66 0 C126.25 1.81, 132.02 5.5, 132.4 17.74 M132.4 17.74 C132.69 24.71, 131.8 36.38, 132.4 53.22 M132.4 17.74 C132.01 27.73, 131.77 38.62, 132.4 53.22 M132.4 53.22 C131.15 63.6, 126.64 69.38, 114.66 70.96 M132.4 53.22 C132.66 62.97, 124.21 70.85, 114.66 70.96 M114.66 70.96 C78 71.83, 40.41 71.07, 17.74 70.96 M114.66 70.96 C81.21 72.08, 45.42 72.04, 17.74 70.96 M17.74 70.96 C6.83 69.53, -0.03 65.49, 0 53.22 M17.74 70.96 C4.48 72.79, 2.13 65.31, 0 53.22 M0 53.22 C1.72 47.22, 1.65 37.72, 0 17.74 M0 53.22 C0.21 43.2, -0.16 34.86, 0 17.74 M0 17.74 C1.73 5.01, 5.38 1.66, 17.74 0 M0 17.74 C-2.29 5.27, 5.13 1.09, 17.74 0" stroke="#0b7285" stroke-width="1" fill="none"></path></g><g transform="translate(479.369094667082 152.75555515581016) rotate(0 46.5 9.5)"><text x="0" y="13" font-family="Virgil, Segoe UI Emoji" font-size="15.101972265621837px" fill="#fff" text-anchor="start" style="white-space: pre;" direction="ltr">tree_sha_2</text></g><g transform="translate(503.064453125 179.53515625) rotate(0 25.384765625 15.058759269067792)"><text x="25.384765625" y="21.11751853813559" font-family="Virgil, Segoe UI Emoji" font-size="24.09401483050847px" fill="#fff" text-anchor="middle" style="white-space: pre;" direction="ltr">tree</text></g><g stroke-linecap="round" transform="translate(19.493091643258367 166.33552800484722) rotate(0 88.580078125 18.927734375)"><path d="M7.76 -0.82 L171.5 -0.14 L176.61 6.3 L175.95 31.99 L173.44 37.38 L166.44 36.45 L4.65 35.43 L2.34 31.17 L-0.12 7.98 L1.35 2.37 L8.11 0.07" stroke="none" stroke-width="0" fill="#fa5252"></path><path d="M9.46 0 M9.46 0 C53.97 0.37, 98.28 0.2, 167.7 0 M9.46 0 C68.8 0.26, 127.56 -0.44, 167.7 0 M167.7 0 C172.59 0.26, 176.95 3.12, 177.16 9.46 M167.7 0 C173.3 0.15, 176.95 1.46, 177.16 9.46 M177.16 9.46 C178.76 15.13, 176.93 20.28, 177.16 28.39 M177.16 9.46 C176.46 15.74, 177.95 22.6, 177.16 28.39 M177.16 28.39 C176.14 35.66, 173.59 37.7, 167.7 37.86 M177.16 28.39 C176.13 36.4, 172.58 36.19, 167.7 37.86 M167.7 37.86 C117.15 36.06, 70.12 39.7, 9.46 37.86 M167.7 37.86 C108.25 38.23, 47.79 38.77, 9.46 37.86 M9.46 37.86 C5.04 38.97, 1.74 35.87, 0 28.39 M9.46 37.86 C1.78 39.09, 1.06 33.06, 0 28.39 M0 28.39 C1.47 24.49, 0.18 15.67, 0 9.46 M0 28.39 C0.8 22.67, 0.08 14.89, 0 9.46 M0 9.46 C1.58 2.95, 4.13 -1.21, 9.46 0 M0 9.46 C0.28 4.21, 5.14 -1.03, 9.46 0" stroke="#c92a2a" stroke-width="1" fill="none"></path></g><g transform="translate(33.37590414325837 174.76130925484722) rotate(0 73.5 10)"><text x="0" y="14" font-family="Virgil, Segoe UI Emoji" font-size="16px" fill="#fff" text-anchor="start" style="white-space: pre;" direction="ltr">refs/heads/master</text></g><g stroke-linecap="round"><g transform="translate(209.52119796795967 184.7490855893684) rotate(0 19.3786483422449 0.620608392634125)"><path d="M0.03 0.59 C6.76 0.66, 33.56 -0.12, 40.18 0.02 M-1.42 -0.15 C5.14 0.14, 31.76 1.41, 39.03 1.39" stroke="#868e96" stroke-width="1" fill="none"></path></g><g transform="translate(209.52119796795967 184.7490855893684) rotate(0 19.3786483422449 0.620608392634125)"><path d="M20.79 7.22 C24.74 4.66, 32.61 2.93, 37.62 0.72 M19.75 7.1 C23.26 6.63, 27.09 5.32, 38.82 2.17" stroke="#868e96" stroke-width="1" fill="none"></path></g><g transform="translate(209.52119796795967 184.7490855893684) rotate(0 19.3786483422449 0.620608392634125)"><path d="M21.14 -6.64 C24.94 -5.28, 32.71 -3.09, 37.62 0.72 M20.1 -6.76 C23.65 -4.34, 27.42 -2.77, 38.82 2.17" stroke="#868e96" stroke-width="1" fill="none"></path></g></g><g stroke-linecap="round" transform="translate(255.67668539325837 149.63240300484722) rotate(0 73.509765625 33.330078125)"><path d="M15.93 0.04 L131.33 -0.62 L139.97 0.99 L146.56 5.25 L145.35 12.09 L145.19 51.75 L143.31 60.03 L139.03 63.3 L130.36 65.31 L16.73 66.24 L8.07 62.86 L2.73 59.36 L0.85 52.95 L1.75 12.91 L4.98 4.36 L11.19 0.26 L17.07 -1.42" stroke="none" stroke-width="0" fill="#fab005"></path><path d="M16.67 0 M16.67 0 C51.61 0.15, 87.61 -1.45, 130.35 0 M16.67 0 C53.36 -0.05, 88.31 -0.48, 130.35 0 M130.35 0 C142.49 0.3, 147.13 4.02, 147.02 16.67 M130.35 0 C140.57 1.85, 146.65 4.38, 147.02 16.67 M147.02 16.67 C146.06 29.75, 145.71 38.43, 147.02 50 M147.02 16.67 C145.86 25.94, 146.71 38.03, 147.02 50 M147.02 50 C148.61 60.25, 141.93 67.94, 130.35 66.66 M147.02 50 C147.02 61.71, 142.71 68.82, 130.35 66.66 M130.35 66.66 C88.7 68.4, 50.36 65.9, 16.67 66.66 M130.35 66.66 C97.21 66.88, 62.58 65.2, 16.67 66.66 M16.67 66.66 C6.51 68.15, 1.89 63.09, 0 50 M16.67 66.66 C7.65 67.2, -0.8 62.92, 0 50 M0 50 C0.08 41.25, 1.56 29.78, 0 16.67 M0 50 C-0.56 40.55, 0.2 32.62, 0 16.67 M0 16.67 C-0.55 4, 5.68 1.12, 16.67 0 M0 16.67 C-0.94 3.3, 4.39 1.55, 16.67 0" stroke="#e67700" stroke-width="1" fill="none"></path></g><g transform="translate(266.52434164325837 151.64021550484722) rotate(0 57.5 10)"><text x="0" y="14" font-family="Virgil, Segoe UI Emoji" font-size="16px" fill="#fff" text-anchor="start" style="white-space: pre;" direction="ltr">commit_sha_2</text></g><g transform="translate(274.17082601825837 180.68904362984722) rotate(0 57 10)"><text x="57" y="14" font-family="Virgil, Segoe UI Emoji" font-size="16px" fill="#fff" text-anchor="middle" style="white-space: pre;" direction="ltr">commit_msg_2</text></g><g stroke-linecap="round"><g transform="translate(406.8530819018242 184.6266465909913) rotate(0 23.49360043609437 0.008170518656015702)"><path d="M-0.81 1.13 C6.83 1, 37.71 -0.7, 45.48 -1.12 M0.96 0.68 C9.02 0.71, 40.48 0.19, 47.8 -0.02" stroke="#868e96" stroke-width="1" fill="none"></path></g><g transform="translate(406.8530819018242 184.6266465909913) rotate(0 23.49360043609437 0.008170518656015702)"><path d="M28.14 7.09 C30.66 5.57, 36.03 5.74, 46.43 -0.14 M25.57 8.38 C30.95 7.24, 35.3 4.76, 47.41 0.27" stroke="#868e96" stroke-width="1" fill="none"></path></g><g transform="translate(406.8530819018242 184.6266465909913) rotate(0 23.49360043609437 0.008170518656015702)"><path d="M27.8 -8.72 C30.36 -5.98, 35.83 -1.56, 46.43 -0.14 M25.23 -7.43 C30.6 -5, 35.03 -3.91, 47.41 0.27" stroke="#868e96" stroke-width="1" fill="none"></path></g></g><g stroke-linecap="round" transform="translate(464.65324789325837 283.5191217548472) rotate(0 66.19831460674158 35.47892512015284)"><path d="M16.53 -0.9 L114.67 1.68 L126.58 0.59 L130.89 8.48 L130.7 14.79 L132.34 54.19 L131.34 62.47 L123.25 69.57 L115.06 69.32 L15.83 69.12 L5.53 68.57 L3.05 65.23 L-0.12 58.74 L-0.19 11.9 L3.85 2.84 L10.71 0.65 L16.23 -1.97" stroke="none" stroke-width="0" fill="#15aabf"></path><path d="M17.74 0 M17.74 0 C50.05 0.1, 80.39 -2.45, 114.66 0 M17.74 0 C51.56 -0.79, 86.97 -1.33, 114.66 0 M114.66 0 C126.07 0.55, 131.69 3.98, 132.4 17.74 M114.66 0 C127.59 1.29, 130.85 3.93, 132.4 17.74 M132.4 17.74 C132.83 31.54, 131.21 42.51, 132.4 53.22 M132.4 17.74 C131.86 26.87, 131.57 38.13, 132.4 53.22 M132.4 53.22 C130.7 65.62, 125.88 72.33, 114.66 70.96 M132.4 53.22 C131.46 63.24, 127.51 71.5, 114.66 70.96 M114.66 70.96 C79.87 73.12, 46.17 69.73, 17.74 70.96 M114.66 70.96 C86.39 70.6, 59.29 70.58, 17.74 70.96 M17.74 70.96 C7.69 68.97, 0.74 66.89, 0 53.22 M17.74 70.96 C4.39 72.75, -2.17 67.2, 0 53.22 M0 53.22 C-1.05 38.31, 1.4 26.42, 0 17.74 M0 53.22 C0.51 39.36, 0.44 26.06, 0 17.74 M0 17.74 C1.58 7.86, 4.82 -0.63, 17.74 0 M0 17.74 C-1.81 5.67, 6 -0.19, 17.74 0" stroke="#0b7285" stroke-width="1" fill="none"></path></g><g transform="translate(479.802688417082 288.27118015581016) rotate(0 43 9.5)"><text x="0" y="13" font-family="Virgil, Segoe UI Emoji" font-size="15.101972265621837px" fill="#fff" text-anchor="start" style="white-space: pre;" direction="ltr">tree_sha_1</text></g><g transform="translate(503.498046875 314.765625) rotate(0 25.384765625 15.05875926906782)"><text x="25.384765625" y="21.11751853813559" font-family="Virgil, Segoe UI Emoji" font-size="24.09401483050847px" fill="#fff" text-anchor="middle" style="white-space: pre;" direction="ltr">tree</text></g><g stroke-linecap="round" transform="translate(255.82512289325837 284.8628717548472) rotate(0 73.509765625 33.330078125)"><path d="M17.87 -0.06 L131.33 1.44 L138.95 3.18 L144.4 6.92 L145.12 10.85 L145.18 48.6 L144.78 60.71 L141.71 63.92 L131.72 66.19 L14.98 66.08 L4.91 65.05 L1.88 58.64 L-1.71 54.23 L-0.26 14.46 L5.8 5.09 L10.67 -0.58 L17.82 -0.44" stroke="none" stroke-width="0" fill="#fab005"></path><path d="M16.67 0 M16.67 0 C54.54 -1.47, 92.58 1.06, 130.35 0 M16.67 0 C47.3 -1.22, 75.94 0.18, 130.35 0 M130.35 0 C140.48 0.59, 147.63 6.13, 147.02 16.67 M130.35 0 C140.3 -1.92, 146.57 3.58, 147.02 16.67 M147.02 16.67 C145.89 28.25, 145.25 38.41, 147.02 50 M147.02 16.67 C146.46 26.11, 147.48 35.24, 147.02 50 M147.02 50 C147.75 62.23, 141.34 68.28, 130.35 66.66 M147.02 50 C147.98 59.07, 141.13 67.17, 130.35 66.66 M130.35 66.66 C92.53 64.53, 56.67 63.91, 16.67 66.66 M130.35 66.66 C92.8 64.97, 54.63 66.59, 16.67 66.66 M16.67 66.66 C5.24 68.29, -1.1 59.25, 0 50 M16.67 66.66 C7.1 65.88, 1.87 63.17, 0 50 M0 50 C1.23 43.1, 1.31 38.49, 0 16.67 M0 50 C0 41.85, 0.02 34.62, 0 16.67 M0 16.67 C-0.12 5.07, 4.54 0.48, 16.67 0 M0 16.67 C2 5.76, 6.87 0.67, 16.67 0" stroke="#e67700" stroke-width="1" fill="none"></path></g><g transform="translate(266.95793539325837 286.8706842548472) rotate(0 54 10)"><text x="0" y="14" font-family="Virgil, Segoe UI Emoji" font-size="16px" fill="#fff" text-anchor="start" style="white-space: pre;" direction="ltr">commit_sha_1</text></g><g transform="translate(278.10441976825837 315.9195123798472) rotate(0 53.5 10)"><text x="53.5" y="14" font-family="Virgil, Segoe UI Emoji" font-size="16px" fill="#fff" text-anchor="middle" style="white-space: pre;" direction="ltr">commit_msg_1</text></g><g stroke-linecap="round"><g transform="translate(407.00151940182445 319.8581289902861) rotate(0 23.180442149750093 -0.7320727941161067)"><path d="M0.5 -0.17 C8.2 -0.22, 39.53 -1.05, 47.06 -1.26 M-0.69 -1.3 C6.79 -1.15, 38.13 -0.35, 46.24 -0.24" stroke="#868e96" stroke-width="1" fill="none"></path></g><g transform="translate(407.00151940182445 319.8581289902861) rotate(0 23.180442149750093 -0.7320727941161067)"><path d="M23.81 7.73 C30.75 2.51, 38.79 0.21, 46.34 0.32 M23.85 6.48 C31.78 3.65, 40.42 1.5, 45.48 -1.22" stroke="#868e96" stroke-width="1" fill="none"></path></g><g transform="translate(407.00151940182445 319.8581289902861) rotate(0 23.180442149750093 -0.7320727941161067)"><path d="M24.13 -8.28 C30.82 -7.54, 38.75 -3.89, 46.34 0.32 M24.17 -9.53 C31.96 -6.59, 40.47 -2.98, 45.48 -1.22" stroke="#868e96" stroke-width="1" fill="none"></path></g></g><g stroke-linecap="round"><g transform="translate(329.55078125 84.76171875) rotate(0 -1.9629708853782972 24.956839703032756)"><path d="M0 -0.6 C-0.6 7.59, -3.35 40.88, -3.92 49.17 M-1.46 1.7 C-1.64 10.06, -1.15 42.42, -1.63 50.51" stroke="#868e96" stroke-width="1" fill="none"></path></g><g transform="translate(329.55078125 84.76171875) rotate(0 -1.9629708853782972 24.956839703032756)"><path d="M-10.72 25.71 C-8.14 32.89, -5.98 39.1, -0.29 49.26 M-8.81 27.7 C-8.19 32.26, -5.79 38.67, -0.8 51.13" stroke="#868e96" stroke-width="1" fill="none"></path></g><g transform="translate(329.55078125 84.76171875) rotate(0 -1.9629708853782972 24.956839703032756)"><path d="M6.25 26 C4.24 33.11, 1.81 39.23, -0.29 49.26 M8.16 27.99 C4.41 32.57, 2.44 38.91, -0.8 51.13" stroke="#868e96" stroke-width="1" fill="none"></path></g></g><g stroke-linecap="round"><g transform="translate(330.959890191746 220.2574145184784) rotate(0 -1.744830862606193 25.007865598103933)"><path d="M0.46 0.61 C0.01 8.6, -2.31 40.61, -3.09 48.92 M-0.76 -0.11 C-1.31 7.94, -3.76 42.01, -3.95 50.13" stroke="#868e96" stroke-width="1" fill="none"></path></g><g transform="translate(330.959890191746 220.2574145184784) rotate(0 -1.744830862606193 25.007865598103933)"><path d="M-10.21 26.69 C-10.13 31.02, -5.58 39.51, -3.12 50.56 M-10.47 26.69 C-8.56 36.44, -5.42 45.5, -3.77 50.51" stroke="#868e96" stroke-width="1" fill="none"></path></g><g transform="translate(330.959890191746 220.2574145184784) rotate(0 -1.744830862606193 25.007865598103933)"><path d="M6.75 27.57 C2.31 31.73, 2.34 39.99, -3.12 50.56 M6.49 27.57 C1.82 37.11, -1.62 45.83, -3.77 50.51" stroke="#868e96" stroke-width="1" fill="none"></path></g></g><g stroke-linecap="round" transform="translate(717.1294645201399 265.92626823693604) rotate(0 71.84319172985988 35.63623176306396)"><path d="M18.21 0.22 L126.34 -0.14 L135.76 1.64 L140.58 5.56 L144.74 15.14 L143.54 54.25 L141.35 62.72 L137.23 69.03 L124.87 70.69 L18.4 70.52 L6.79 69.27 L2.37 64.77 L-0.5 57.7 L-1.01 12.67 L4.77 3.43 L8.06 -0.36 L18.62 0.5" stroke="none" stroke-width="0" fill="#868e96"></path><path d="M17.82 0 M17.82 0 C44.88 0.06, 75.94 -0.97, 125.87 0 M17.82 0 C55.54 -1.3, 90.28 -0.2, 125.87 0 M125.87 0 C137.97 0.02, 144.78 7.5, 143.69 17.82 M125.87 0 C138.63 1.56, 145.91 3.79, 143.69 17.82 M143.69 17.82 C144.6 29.32, 144.78 42.5, 143.69 53.45 M143.69 17.82 C142.82 30.85, 144.52 43.26, 143.69 53.45 M143.69 53.45 C144.09 64.4, 138.86 70.26, 125.87 71.27 M143.69 53.45 C141.47 67.18, 137.29 70.92, 125.87 71.27 M125.87 71.27 C99.17 71.76, 72.87 70.59, 17.82 71.27 M125.87 71.27 C88.84 71.05, 52 71.09, 17.82 71.27 M17.82 71.27 C6.39 70.09, 1 64.01, 0 53.45 M17.82 71.27 C6.66 69.95, 1.33 65.67, 0 53.45 M0 53.45 C2.24 42.45, 0.84 28.61, 0 17.82 M0 53.45 C-0.53 44.3, -0.63 34.72, 0 17.82 M0 17.82 C-0.46 6, 6.16 -0.72, 17.82 0 M0 17.82 C-1.38 7.11, 4.21 0.59, 17.82 0" stroke="#868e96" stroke-width="1" fill="none"></path></g><g transform="translate(730.6967671781133 276.31747865918203) rotate(0 40.24881599711341 9.54353369003718)"><text x="0" y="14.087067380074377" font-family="Virgil, Segoe UI Emoji" font-size="14.708512004130014px" fill="#fff" text-anchor="start" style="white-space: pre;" direction="ltr">blob_sha_1</text></g><g transform="translate(749.2489939409963 305.442689830928) rotate(0 36.09945352318414 8.298724947858432)"><text x="36.09945352318417" y="11.597449895716856" font-family="Virgil, Segoe UI Emoji" font-size="13.277959916573481px" fill="#fff" text-anchor="middle" style="white-space: pre;" direction="ltr">"content_1"</text></g><g stroke-linecap="round"><g transform="translate(609.58984375 43.62109375) rotate(0 49.23106689936486 11.910741474670345)"><path d="M0.89 -0.14 C16.96 4.15, 80.39 20.96, 96.38 25.08 M-0.11 -1.26 C16.34 2.75, 82.58 19.45, 98.57 23.4" stroke="#868e96" stroke-width="1" fill="none"></path></g><g transform="translate(609.58984375 43.62109375) rotate(0 49.23106689936486 11.910741474670345)"><path d="M68.5 24.85 C78.93 24.49, 86.88 26.37, 98.28 24.5 M69.17 25.85 C81.27 25.35, 92.47 23.55, 98.81 23.97" stroke="#868e96" stroke-width="1" fill="none"></path></g><g transform="translate(609.58984375 43.62109375) rotate(0 49.23106689936486 11.910741474670345)"><path d="M73.47 4.94 C82.34 10.47, 88.83 18.19, 98.28 24.5 M74.14 5.94 C84.11 13.24, 93.35 19.29, 98.81 23.97" stroke="#868e96" stroke-width="1" fill="none"></path></g></g><g stroke-linecap="round"><g transform="translate(592.638419724265 218.51859118286114) rotate(0 52.97358714326606 22.637974149524524)"><path d="M-0.19 -0.78 C17.94 6.89, 89.89 37.41, 107.7 45 M-1.75 1.43 C16.32 9.31, 88.32 38.72, 106.78 46.05" stroke="#868e96" stroke-width="1" fill="none"></path></g><g transform="translate(592.638419724265 218.51859118286114) rotate(0 52.97358714326606 22.637974149524524)"><path d="M75.5 45.09 C81.48 43.6, 87.3 45.25, 108.27 45.31 M75.97 45.31 C84.36 44.96, 92.42 45.28, 107.33 45.3" stroke="#868e96" stroke-width="1" fill="none"></path></g><g transform="translate(592.638419724265 218.51859118286114) rotate(0 52.97358714326606 22.637974149524524)"><path d="M83.19 26.06 C87.41 28.51, 91.63 34.12, 108.27 45.31 M83.66 26.28 C90.07 30.87, 96.13 36.16, 107.33 45.3" stroke="#868e96" stroke-width="1" fill="none"></path></g></g><g stroke-linecap="round"><g transform="translate(598.4476330198347 195.87593406872128) rotate(0 58.295700867129426 -0.9996590401278809)"><path d="M-0.47 -0.62 C18.83 -0.77, 95.32 -1.56, 114.93 -1.91 M1.49 1.67 C21.22 1.26, 97.81 -3.15, 117.06 -3.67" stroke="#868e96" stroke-width="1" fill="none"></path></g><g transform="translate(598.4476330198347 195.87593406872128) rotate(0 58.295700867129426 -0.9996590401278809)"><path d="M88.32 5.98 C96.86 7.21, 101.8 2.96, 115.59 -2.22 M89.38 8.75 C97.49 3.66, 106.7 0.84, 117.05 -3.94" stroke="#868e96" stroke-width="1" fill="none"></path></g><g transform="translate(598.4476330198347 195.87593406872128) rotate(0 58.295700867129426 -0.9996590401278809)"><path d="M87.41 -14.52 C95.99 -8.63, 101.13 -8.23, 115.59 -2.22 M88.48 -11.75 C96.81 -10.12, 106.31 -6.23, 117.05 -3.94" stroke="#868e96" stroke-width="1" fill="none"></path></g></g><g stroke-linecap="round"><g transform="translate(548.45703125 91.1328125) rotate(0 79.97749837405053 29.541494373232126)"><path d="M0.05 -1.04 C26.42 8.86, 132.38 50.24, 158.98 60.13 M-1.38 1.02 C25.32 10.53, 134.61 48.75, 161.34 58.43" stroke="#868e96" stroke-width="1" fill="none"></path></g><g transform="translate(548.45703125 91.1328125) rotate(0 79.97749837405053 29.541494373232126)"><path d="M129.6 57.52 C143.56 58.62, 151.41 60.07, 162.03 58.09 M130.75 58.94 C139.44 57.81, 144.96 58.55, 160.74 58.64" stroke="#868e96" stroke-width="1" fill="none"></path></g><g transform="translate(548.45703125 91.1328125) rotate(0 79.97749837405053 29.541494373232126)"><path d="M136.46 38.18 C148.05 46.3, 153.4 54.77, 162.03 58.09 M137.61 39.6 C144.6 43.22, 148.44 48.67, 160.74 58.64" stroke="#868e96" stroke-width="1" fill="none"></path></g></g><g stroke-linecap="round"><g transform="translate(610.54296875 318.4921875) rotate(0 49.07324351171968 -12.970489875227202)"><path d="M0.38 1.08 C16.64 -3.23, 80.53 -22.59, 96.88 -27.03 M-0.88 0.61 C15.79 -3.48, 82.55 -21.23, 99.03 -25.91" stroke="#868e96" stroke-width="1" fill="none"></path></g><g transform="translate(610.54296875 318.4921875) rotate(0 49.07324351171968 -12.970489875227202)"><path d="M76.34 -10.37 C79.35 -12.04, 87.85 -17.46, 100.86 -27.08 M73.81 -9.15 C82.46 -14.68, 89.82 -19.14, 98.07 -25.46" stroke="#868e96" stroke-width="1" fill="none"></path></g><g transform="translate(610.54296875 318.4921875) rotate(0 49.07324351171968 -12.970489875227202)"><path d="M70.93 -30.16 C75.08 -27.01, 84.91 -27.58, 100.86 -27.08 M68.4 -28.95 C78.56 -28.48, 87.56 -26.9, 98.07 -25.46" stroke="#868e96" stroke-width="1" fill="none"></path></g></g><g stroke-linecap="round" transform="translate(22.16796875 53.0546875) rotate(0 8.28125 21.57421875)"><path d="M8.41 -1.84 L18.02 20.33 L10 42.52 L-0.71 21.34" stroke="none" stroke-width="0" fill="#40c057" fill-rule="evenodd"></path><path d="M7.23 -1.43 C11.69 7.74, 15.8 15.28, 17.13 22.04 M8.18 0.28 C9.95 4.6, 12.82 9.64, 16.1 22 M17.76 20.93 C12.68 27.68, 12.99 38.58, 10.04 43.53 M17.39 21.72 C14.85 28.67, 10.38 37.62, 8.98 42.29 M8.13 43.63 C5.25 36.05, 5.28 29.34, -1.47 21.83 M9.84 43.05 C4.93 36.21, 2.09 28.03, -0.45 22.75 M1.68 20.13 C2.64 12.51, 6.11 4.8, 10.66 -1.16 M0.42 22.44 C4.23 14.46, 6.25 6.55, 8.56 -0.4" stroke="#868e96" stroke-width="1" fill="none"></path></g><g transform="translate(10 95.5078125) rotate(0 21.5 10)"><text x="0" y="14" font-family="Virgil, Segoe UI Emoji" font-size="16px" fill="#087f5b" text-anchor="start" style="white-space: pre;" direction="ltr">HEAD</text></g><g stroke-linecap="round" transform="translate(618.6171875 46.6796875) rotate(0 30.978463752422215 8.28125)"><path d="M3.73 -1.4 L59.86 1.67 L63.05 0.42 L60.22 15.43 L59.18 15.95 L2.07 14.53 L0.2 13.24 L-1.11 3.7 L1.34 2.09 L5.05 0.85" stroke="none" stroke-width="0" fill="#fff"></path><path d="M4.14 0 M4.14 0 C16.83 2.23, 27.69 -0.8, 57.82 0 M4.14 0 C22.65 0.28, 42.04 1.07, 57.82 0 M57.82 0 C59.66 -0.57, 63.43 0.46, 61.96 4.14 M57.82 0 C60.75 0.11, 60.97 0.48, 61.96 4.14 M61.96 4.14 C61.58 6.53, 62.05 9.81, 61.96 12.42 M61.96 4.14 C62.34 6.44, 61.94 9.22, 61.96 12.42 M61.96 12.42 C60.75 15.61, 59.56 16.43, 57.82 16.56 M61.96 12.42 C63.25 13.04, 62.01 18.52, 57.82 16.56 M57.82 16.56 C46.9 14.56, 31.16 17.79, 4.14 16.56 M57.82 16.56 C39.35 15.14, 20.3 16.91, 4.14 16.56 M4.14 16.56 C-0.3 17.54, 0.86 16.84, 0 12.42 M4.14 16.56 C1.89 15.54, -0.26 17.32, 0 12.42 M0 12.42 C0.39 9.97, 0.2 7.78, 0 4.14 M0 12.42 C-0.41 10.42, -0.39 7.85, 0 4.14 M0 4.14 C1.08 0.93, 1.3 -0.51, 4.14 0 M0 4.14 C-0.17 1.49, 0.2 -2.05, 4.14 0" stroke="transparent" stroke-width="1" fill="none"></path></g><g transform="translate(630.1396245048718 49.147449472101925) rotate(0 12 6.5)"><text x="0" y="9" font-family="Virgil, Segoe UI Emoji" font-size="9.666020745469046px" fill="#868e96" text-anchor="start" style="white-space: pre;" direction="ltr">t3b3</text></g><g stroke-linecap="round" transform="translate(559.5059112475778 93.46484375) rotate(0 30.978463752422215 8.28125)"><path d="M5.36 0.89 L58.06 -0.09 L62.41 2.88 L61.1 14.71 L57.44 15.08 L1.74 15.07 L1.05 15.47 L0.99 4.88 L0.51 2.76 L5.27 1.19" stroke="none" stroke-width="0" fill="#fff"></path><path d="M4.14 0 M4.14 0 C18 0.8, 33.75 1.38, 57.82 0 M4.14 0 C18.45 1.33, 34.45 0.02, 57.82 0 M57.82 0 C60.68 -0.8, 62.19 2.56, 61.96 4.14 M57.82 0 C61.71 1.77, 63.01 2.4, 61.96 4.14 M61.96 4.14 C62.38 7.09, 62.74 9.83, 61.96 12.42 M61.96 4.14 C62.34 6.39, 62.2 8.49, 61.96 12.42 M61.96 12.42 C61.11 16.34, 61.48 18, 57.82 16.56 M61.96 12.42 C60.42 15.58, 59.19 14.28, 57.82 16.56 M57.82 16.56 C37.65 15.71, 18.88 17.31, 4.14 16.56 M57.82 16.56 C39.85 16.36, 21.76 15.73, 4.14 16.56 M4.14 16.56 C2.65 14.79, -1.16 14.09, 0 12.42 M4.14 16.56 C1.65 17.11, 2 13.4, 0 12.42 M0 12.42 C0.08 9.95, 0.76 8.06, 0 4.14 M0 12.42 C-0.18 9.1, 0.41 6.41, 0 4.14 M0 4.14 C1.09 0.49, -0.31 1.46, 4.14 0 M0 4.14 C-1.16 0.9, 0.77 0.31, 4.14 0" stroke="transparent" stroke-width="1" fill="none"></path></g><g transform="translate(570.7431920024496 96.21385572210193) rotate(0 12 6.5)"><text x="0" y="9" font-family="Virgil, Segoe UI Emoji" font-size="9.666020745469046px" fill="#868e96" text-anchor="start" style="white-space: pre;" direction="ltr">t3b2</text></g><g stroke-linecap="round" transform="translate(608.1582549975778 228.76171875) rotate(0 30.978463752422215 8.28125)"><path d="M4.46 -0.39 L57.91 -0.67 L62.01 1.02 L60.76 15.54 L56.32 14.97 L3.3 17.32 L-1.4 12.8 L-0.84 5.94 L0.75 2.61 L3.38 -0.19" stroke="none" stroke-width="0" fill="#fff"></path><path d="M4.14 0 M4.14 0 C17.21 0.45, 29.1 -0.68, 57.82 0 M4.14 0 C17.31 -0.82, 31.85 -0.87, 57.82 0 M57.82 0 C60.37 -0.81, 62.1 3.2, 61.96 4.14 M57.82 0 C59.05 1.75, 62.84 0.63, 61.96 4.14 M61.96 4.14 C62.09 6.37, 62.19 9.44, 61.96 12.42 M61.96 4.14 C61.66 6.55, 61.96 8.1, 61.96 12.42 M61.96 12.42 C62.97 14.82, 59.84 14.59, 57.82 16.56 M61.96 12.42 C62.77 15.06, 59.44 18.04, 57.82 16.56 M57.82 16.56 C44.92 16.47, 34.77 17.56, 4.14 16.56 M57.82 16.56 C41.12 16.98, 23.11 16.81, 4.14 16.56 M4.14 16.56 C0.91 15.1, -0.9 14.02, 0 12.42 M4.14 16.56 C2.27 18.3, 0.79 16.91, 0 12.42 M0 12.42 C0.09 9.47, 0.04 6.89, 0 4.14 M0 12.42 C-0.01 9.22, 0.24 6.1, 0 4.14 M0 4.14 C1.73 -0.01, 1.53 1.64, 4.14 0 M0 4.14 C1.06 2.61, 2.21 -1.6, 4.14 0" stroke="transparent" stroke-width="1" fill="none"></path></g><g transform="translate(619.3955357524496 232.08104322210193) rotate(0 10 6.5)"><text x="0" y="9" font-family="Virgil, Segoe UI Emoji" font-size="9.666020745469046px" fill="#868e96" text-anchor="start" style="white-space: pre;" direction="ltr">t2b1</text></g><g stroke-linecap="round" transform="translate(620.1387237475778 187.42578125) rotate(0 30.941354377422215 9.142578125)"><path d="M5.02 1.52 L58.59 -0.52 L60.12 3.24 L62.66 15.17 L58.5 19.05 L2.02 18.54 L1.87 16.38 L1.34 4.6 L0.55 2.81 L2.79 -0.08" stroke="none" stroke-width="0" fill="#fff"></path><path d="M4.57 0 M4.57 0 C21.43 -0.6, 41.28 2.12, 57.31 0 M4.57 0 C19.06 0.15, 31.89 -0.31, 57.31 0 M57.31 0 C61.07 -0.98, 60.4 0.43, 61.88 4.57 M57.31 0 C60.72 -1.86, 64.13 -0.69, 61.88 4.57 M61.88 4.57 C61.68 7.97, 61.45 8.8, 61.88 13.71 M61.88 4.57 C62.26 7.35, 61.88 10.64, 61.88 13.71 M61.88 13.71 C62.67 15.39, 62.07 18.16, 57.31 18.29 M61.88 13.71 C60.69 19.01, 62.25 20.51, 57.31 18.29 M57.31 18.29 C43.37 19, 33.88 19.77, 4.57 18.29 M57.31 18.29 C37.39 17.47, 16.37 18.03, 4.57 18.29 M4.57 18.29 C3.2 17.96, 0.85 16.03, 0 13.71 M4.57 18.29 C3.74 18.58, -0.97 14.73, 0 13.71 M0 13.71 C-0.69 11.93, -0.03 9.08, 0 4.57 M0 13.71 C-0.2 11.07, -0.15 8.67, 0 4.57 M0 4.57 C-1.91 3.11, 3.08 1.78, 4.57 0 M0 4.57 C0.44 -0.09, 3.63 0.36, 4.57 0" stroke="transparent" stroke-width="1" fill="none"></path></g><g transform="translate(626.2627232524496 189.76854322210193) rotate(0 12 6.5)"><text x="0" y="9" font-family="Virgil, Segoe UI Emoji" font-size="9.666020745469046px" fill="#868e96" text-anchor="start" style="white-space: pre;" direction="ltr">t2b2</text></g><g stroke-linecap="round" transform="translate(626.0762237475778 297.5703125) rotate(0 25.638620002422215 9.017578125)"><path d="M3.38 1.52 L49.67 -0.48 L52.01 2.26 L52.33 17.39 L44.9 16.62 L3.33 17.15 L-0.73 17.1 L1.78 5.52 L1.9 -0.02 L5.72 0.61" stroke="none" stroke-width="0" fill="#fff"></path><path d="M4.51 0 M4.51 0 C20.17 -1.55, 35.77 -0.4, 46.77 0 M4.51 0 C17.02 -0.71, 29.88 0.8, 46.77 0 M46.77 0 C48.81 -0.55, 51.51 -0.16, 51.28 4.51 M46.77 0 C51.78 0.42, 52.71 1.41, 51.28 4.51 M51.28 4.51 C52.08 6.34, 50.59 9.82, 51.28 13.53 M51.28 4.51 C51.43 6.85, 51.18 9.43, 51.28 13.53 M51.28 13.53 C49.32 17.94, 48.02 16.56, 46.77 18.04 M51.28 13.53 C49.19 17.26, 47.6 16.73, 46.77 18.04 M46.77 18.04 C33.88 19.96, 21.75 19.45, 4.51 18.04 M46.77 18.04 C32.17 18.76, 17.68 18.81, 4.51 18.04 M4.51 18.04 C0.8 17.27, 0.38 15.42, 0 13.53 M4.51 18.04 C0.72 19.32, 1.17 18.5, 0 13.53 M0 13.53 C-0.75 12.04, -0.23 9.51, 0 4.51 M0 13.53 C0.31 11.62, 0.26 8.51, 0 4.51 M0 4.51 C1.65 -0.46, 1.39 -1.07, 4.51 0 M0 4.51 C0.18 -0.37, -0.62 0.78, 4.51 0" stroke="transparent" stroke-width="1" fill="none"></path></g><g transform="translate(637.3135045024496 300.6044807221019) rotate(0 8 6.5)"><text x="0" y="9" font-family="Virgil, Segoe UI Emoji" font-size="9.666020745469046px" fill="#868e96" text-anchor="start" style="white-space: pre;" direction="ltr">t1b1</text></g></svg>