<svg version="1.1" xmlns="http://www.w3.org/2000/svg" viewBox="0 0 421.95131671348315 293.2582219951529" width="843.9026334269663" height="586.5164439903058">
  <!-- svg-source:excalidraw -->
  
  <defs>
    <style>
      @font-face {
        font-family: "Virgil";
        src: url("https://excalidraw.com/Virgil.woff2");
      }
      @font-face {
        font-family: "Cascadia";
        src: url("https://excalidraw.com/Cascadia.woff2");
      }
    </style>
  </defs>
  <rect x="0" y="0" width="421.95131671348315" height="293.2582219951529" fill="#ffffff"></rect><g stroke-linecap="round"><g transform="translate(159.55665722578476 104.7651521768421) rotate(0 -30.019352611746058 43.79177687501533)"><path d="M0.62 -0.29 C-9.39 14.53, -49.71 73.12, -59.43 87.94 M-0.51 -1.48 C-10.78 13.55, -51.1 73.83, -60.66 89.07" stroke="#868e96" stroke-width="1" fill="none"></path></g><g transform="translate(159.55665722578476 104.7651521768421) rotate(0 -30.019352611746058 43.79177687501533)"><path d="M-54.35 58.96 C-57.78 72.13, -59 81.83, -60.66 89.53 M-53.5 59.76 C-55.04 64.93, -55.88 71.49, -59.67 88.36" stroke="#868e96" stroke-width="1" fill="none"></path></g><g transform="translate(159.55665722578476 104.7651521768421) rotate(0 -30.019352611746058 43.79177687501533)"><path d="M-37.15 70.16 C-46.53 79.48, -53.79 85.25, -60.66 89.53 M-36.3 70.96 C-41.4 74.01, -45.69 78.32, -59.67 88.36" stroke="#868e96" stroke-width="1" fill="none"></path></g></g><g stroke-linecap="round" transform="translate(63.34089273174163 125.234375) rotate(0 64.09765625 17.134765625)"><path d="M8.16 -1.4 L123.61 1.95 L129.02 2.91 L126.19 30.65 L127.42 31.52 L119.36 32.5 L4.76 32.74 L-0.58 29.01 L0.31 9.63 L3.05 2.99 L7.17 -0.76" stroke="none" stroke-width="0" fill="#fff"></path><path d="M8.57 0 M8.57 0 C33.22 -2.2, 61.05 -2.99, 119.63 0 M8.57 0 C36.03 0.8, 61.03 -0.23, 119.63 0 M119.63 0 C126.81 -0.92, 128.35 2.95, 128.2 8.57 M119.63 0 C124.36 -0.9, 130.17 1.84, 128.2 8.57 M128.2 8.57 C128.39 11, 127.94 17.55, 128.2 25.7 M128.2 8.57 C128.18 14.35, 127.81 19.14, 128.2 25.7 M128.2 25.7 C127.18 31.28, 126.47 32.4, 119.63 34.27 M128.2 25.7 C129.63 33.37, 123.82 34.13, 119.63 34.27 M119.63 34.27 C94.5 35.12, 73.51 31.81, 8.57 34.27 M119.63 34.27 C95.98 33.96, 70.22 33.67, 8.57 34.27 M8.57 34.27 C3.72 35.92, 0.45 30.53, 0 25.7 M8.57 34.27 C2.6 36.4, -1.23 31.62, 0 25.7 M0 25.7 C0.36 19.78, -0.63 17.78, 0 8.57 M0 25.7 C-0.5 21.09, 0.6 16.84, 0 8.57 M0 8.57 C-0.08 2.35, 2.71 0.1, 8.57 0 M0 8.57 C-1.18 0.81, 3.77 1.64, 8.57 0" stroke="transparent" stroke-width="1" fill="none"></path></g><g transform="translate(73.87995523174163 129.62109375) rotate(0 49.5 12.5)"><text x="0" y="18" font-family="Virgil, Segoe UI Emoji" font-size="20px" fill="#868e96" text-anchor="start" style="white-space: pre;" direction="ltr">filename_1</text></g><g stroke-linecap="round" transform="translate(134.43464273174163 10) rotate(0 73.41120523174158 42.94181574515281)"><path d="M21.61 -0.29 L124.09 0.15 L139.23 2 L144.76 8.69 L147.6 14.61 L145.42 63.76 L144.17 77.61 L137.6 83.99 L125.09 86.08 L20.5 85 L8.71 83.3 L4.5 75.83 L1.43 68.85 L-0.95 17.88 L4 6.69 L10.23 1.68 L22.23 -1.1" stroke="none" stroke-width="0" fill="#15aabf"></path><path d="M21.47 0 M21.47 0 C48.33 0.1, 70.4 0.2, 125.35 0 M21.47 0 C48.09 -0.84, 77.01 -1.08, 125.35 0 M125.35 0 C141.47 -1.29, 148.69 5.37, 146.82 21.47 M125.35 0 C139.58 -0.79, 147.11 7.46, 146.82 21.47 M146.82 21.47 C147.67 32.5, 147.98 40.53, 146.82 64.41 M146.82 21.47 C146.94 30.14, 147.74 39.91, 146.82 64.41 M146.82 64.41 C148.51 78.7, 141.43 84.58, 125.35 85.88 M146.82 64.41 C146.35 80.62, 140.71 85.1, 125.35 85.88 M125.35 85.88 C99.14 84.72, 69.9 86.6, 21.47 85.88 M125.35 85.88 C93.36 86.61, 60.53 85.62, 21.47 85.88 M21.47 85.88 C6.72 85.38, 1.57 80, 0 64.41 M21.47 85.88 C5.99 88.08, 2 79.21, 0 64.41 M0 64.41 C0.17 48.69, -0.63 32.04, 0 21.47 M0 64.41 C-0.9 52.33, -1.24 39.29, 0 21.47 M0 21.47 C1.3 5.69, 5.2 -1.71, 21.47 0 M0 21.47 C1.52 8.26, 9.41 0.47, 21.47 0" stroke="#0b7285" stroke-width="1" fill="none"></path></g><g transform="translate(150.98252075556525 16.435652150962937) rotate(0 41 11.5)"><text x="0" y="16" font-family="Virgil, Segoe UI Emoji" font-size="17.72382154673737px" fill="#fff" text-anchor="start" style="white-space: pre;" direction="ltr">tree_sha</text></g><g transform="translate(179.73256671348327 44.72697199515284) rotate(0 29.5 17.5)"><text x="29.5" y="25" font-family="Virgil, Segoe UI Emoji" font-size="28px" fill="#fff" text-anchor="middle" style="white-space: pre;" direction="ltr">tree</text></g><g stroke-linecap="round" transform="translate(10 197.37459050484722) rotate(0 86.57136148174152 42.94181574515284)"><path d="M20.79 1.68 L152.79 -1.29 L163.08 2.24 L172.02 7.33 L173.51 16.3 L172.87 63.38 L170.42 76.6 L162.94 84.66 L151.54 83.91 L22.17 86.94 L9.48 84.14 L3.69 76.47 L-1.13 68.59 L-0.31 16.78 L4.69 9.86 L8.33 1.6 L22.35 -0.28" stroke="none" stroke-width="0" fill="#868e96"></path><path d="M21.47 0 M21.47 0 C71.36 0.12, 117.65 0.67, 151.67 0 M21.47 0 C71 -0.46, 121.91 0.9, 151.67 0 M151.67 0 C167.94 0.67, 173.31 8.66, 173.14 21.47 M151.67 0 C167.21 -2.24, 175.1 6.8, 173.14 21.47 M173.14 21.47 C174.67 38, 175.18 53.88, 173.14 64.41 M173.14 21.47 C173.47 35.47, 173.59 48.34, 173.14 64.41 M173.14 64.41 C174.29 76.93, 167.98 86.33, 151.67 85.88 M173.14 64.41 C172.89 77, 166.72 85.18, 151.67 85.88 M151.67 85.88 C117.96 86.31, 82.6 85.27, 21.47 85.88 M151.67 85.88 C109.28 86.52, 68.98 86.45, 21.47 85.88 M21.47 85.88 C8.39 85.21, 0.21 78.61, 0 64.41 M21.47 85.88 C8.88 83.76, 1.11 80.02, 0 64.41 M0 64.41 C-2.25 52.14, -1.04 44.07, 0 21.47 M0 64.41 C0.85 52.08, -0.54 41.08, 0 21.47 M0 21.47 C0.84 5.91, 6.56 -0.44, 21.47 0 M0 21.47 C-1.94 8.54, 9.3 -1.18, 21.47 0" stroke="#868e96" stroke-width="1" fill="none"></path></g><g transform="translate(26.348659273823614 209.55243015581016) rotate(0 48.5 11.5)"><text x="0" y="16" font-family="Virgil, Segoe UI Emoji" font-size="17.72382154673737px" fill="#fff" text-anchor="start" style="white-space: pre;" direction="ltr">blob_sha_1</text></g><g transform="translate(48.70417398174163 244.6484375) rotate(0 43.5 10)"><text x="43.5" y="14" font-family="Virgil, Segoe UI Emoji" font-size="16px" fill="#fff" text-anchor="middle" style="white-space: pre;" direction="ltr">"content_1"</text></g><g stroke-linecap="round" transform="translate(238.3984375 197.98787175484722) rotate(0 86.77643960674158 41.45939387015284)"><path d="M19.56 -0.53 L152.79 1.67 L167.32 2.65 L169.84 6.69 L172.11 17.18 L174.4 63.42 L171.52 75.05 L164.89 80.84 L153.26 83.39 L20.83 82.5 L9.82 79.9 L3.45 75.36 L-1.19 67.33 L1.39 17.56 L5.29 6.5 L10.26 3.2 L22.25 -1.42" stroke="none" stroke-width="0" fill="#868e96"></path><path d="M20.73 0 M20.73 0 C66.08 -1.6, 107.95 -1.32, 152.82 0 M20.73 0 C58.15 -0.85, 96.39 -1.49, 152.82 0 M152.82 0 C166.63 -1.62, 172.03 8.39, 173.55 20.73 M152.82 0 C167.17 -0.78, 171.54 6.28, 173.55 20.73 M173.55 20.73 C171.63 33.4, 173.05 44.54, 173.55 62.19 M173.55 20.73 C173.19 32.36, 173.49 43.22, 173.55 62.19 M173.55 62.19 C174 75.61, 168.17 80.93, 152.82 82.92 M173.55 62.19 C174.13 77.36, 168.2 84.94, 152.82 82.92 M152.82 82.92 C123.14 85.11, 88.61 84.66, 20.73 82.92 M152.82 82.92 C102.36 81.79, 54.4 82.88, 20.73 82.92 M20.73 82.92 C5.55 84.53, -1.35 77.5, 0 62.19 M20.73 82.92 C5.5 85.14, 1.08 75.32, 0 62.19 M0 62.19 C-0.55 52.53, 1.27 40.79, 0 20.73 M0 62.19 C-1.02 46.38, 0.87 31.61, 0 20.73 M0 20.73 C1.1 5.08, 6.31 -0.79, 20.73 0 M0 20.73 C-0.85 9.17, 7.96 -0.7, 20.73 0" stroke="#868e96" stroke-width="1" fill="none"></path></g><g transform="translate(250.7627217738236 210.73211765581027) rotate(0 52.5 11.5)"><text x="0" y="16" font-family="Virgil, Segoe UI Emoji" font-size="17.72382154673737px" fill="#fff" text-anchor="start" style="white-space: pre;" direction="ltr">blob_sha_2</text></g><g transform="translate(274.66901773174163 243.34375) rotate(0 47 10)"><text x="47" y="14" font-family="Virgil, Segoe UI Emoji" font-size="16px" fill="#fff" text-anchor="middle" style="white-space: pre;" direction="ltr">"content_2"</text></g><g stroke-linecap="round"><g transform="translate(256.2291493319012 100.57565572803878) rotate(0 30.676065929501817 45.77562491324363)"><path d="M0.98 -0.36 C11.03 14.83, 51.27 76.17, 61.31 91.74 M0.04 -1.6 C9.83 13.73, 50.3 77.68, 60.36 93.15" stroke="#868e96" stroke-width="1" fill="none"></path></g><g transform="translate(256.2291493319012 100.57565572803878) rotate(0 30.676065929501817 45.77562491324363)"><path d="M35.91 74.93 C45.42 81.65, 56.79 88.57, 60.34 93.51 M36.83 75.56 C43.47 79.74, 52.02 87.26, 61.04 93.37" stroke="#868e96" stroke-width="1" fill="none"></path></g><g transform="translate(256.2291493319012 100.57565572803878) rotate(0 30.676065929501817 45.77562491324363)"><path d="M53.2 63.87 C56.08 75, 60.76 86.2, 60.34 93.51 M54.11 64.49 C55.21 72.44, 58.13 83.57, 61.04 93.37" stroke="#868e96" stroke-width="1" fill="none"></path></g></g><g stroke-linecap="round" transform="translate(232.95808023174163 122.68773641157895) rotate(0 64.09765625 17.134765625)"><path d="M9.51 1.64 L122.77 0.52 L127.26 4.68 L129.41 29.2 L126.03 32.49 L120.14 35.72 L6.74 34.34 L1.77 27.56 L-1.82 8.25 L3.51 3.5 L9 0.26" stroke="none" stroke-width="0" fill="#fff"></path><path d="M8.57 0 M8.57 0 C42.1 0.58, 77.52 -0.58, 119.63 0 M8.57 0 C34.56 0.91, 58.2 -0.13, 119.63 0 M119.63 0 C125.73 0.74, 130.15 3.7, 128.2 8.57 M119.63 0 C126.83 -1.56, 128.27 3.98, 128.2 8.57 M128.2 8.57 C129.77 11.47, 129.4 15.88, 128.2 25.7 M128.2 8.57 C128.86 12.69, 128.16 17.05, 128.2 25.7 M128.2 25.7 C129.67 31.41, 126.18 35.73, 119.63 34.27 M128.2 25.7 C126.97 29.91, 125.45 34.93, 119.63 34.27 M119.63 34.27 C98.75 35.33, 75.35 34.34, 8.57 34.27 M119.63 34.27 C86.83 33.97, 56.11 35.72, 8.57 34.27 M8.57 34.27 C1.63 35.75, -1.5 31.12, 0 25.7 M8.57 34.27 C1.58 36.24, -0.39 32.24, 0 25.7 M0 25.7 C0.86 20.57, -0.28 11.04, 0 8.57 M0 25.7 C-0.13 18.28, -0.48 13.21, 0 8.57 M0 8.57 C-0.22 1.09, 3.86 -0.99, 8.57 0 M0 8.57 C-0.72 3.95, 3.62 2.21, 8.57 0" stroke="transparent" stroke-width="1" fill="none"></path></g><g transform="translate(248.65339273174163 127.51586141157895) rotate(0 53.5 12.5)"><text x="0" y="18" font-family="Virgil, Segoe UI Emoji" font-size="20px" fill="#868e96" text-anchor="start" style="white-space: pre;" direction="ltr">filename_2</text></g></svg>