<svg version="1.1" xmlns="http://www.w3.org/2000/svg" viewBox="0 0 201.84375 292.6918157451529" width="403.6875" height="585.3836314903058">
  <!-- svg-source:excalidraw -->
  
  <defs>
    <style>
      @font-face {
        font-family: "Virgil";
        src: url("https://excalidraw.com/Virgil.woff2");
      }
      @font-face {
        font-family: "Cascadia";
        src: url("https://excalidraw.com/Cascadia.woff2");
      }
    </style>
  </defs>
  <rect x="0" y="0" width="201.84375" height="292.6918157451529" fill="#ffffff"></rect><g stroke-linecap="round"><g transform="translate(80.3166462551244 103.28249389026314) rotate(0 -0.89721563818091 45.33567363416773)"><path d="M0.62 -0.29 C0.32 15.04, -1.17 75.69, -1.19 91.02 M-0.51 -1.48 C-1.07 14.07, -2.57 76.41, -2.41 92.15" stroke="#868e96" stroke-width="1" fill="none"></path></g><g transform="translate(80.3166462551244 103.28249389026314) rotate(0 -0.89721563818091 45.33567363416773)"><path d="M-12.88 62.98 C-10.41 75.73, -5.75 85.11, -2.41 92.62 M-12.03 63.78 C-10.2 68.63, -7.66 75.01, -1.42 91.45" stroke="#868e96" stroke-width="1" fill="none"></path></g><g transform="translate(80.3166462551244 103.28249389026314) rotate(0 -0.89721563818091 45.33567363416773)"><path d="M7.65 63.18 C2.91 75.97, 0.37 85.27, -2.41 92.62 M8.49 63.98 C6.19 68.95, 4.6 75.29, -1.42 91.45" stroke="#868e96" stroke-width="1" fill="none"></path></g></g><g stroke-linecap="round" transform="translate(63.6484375 125.65234375) rotate(0 64.09765625 17.134765625)"><path d="M8.16 -1.4 L123.61 1.95 L129.02 2.91 L126.19 30.65 L127.42 31.52 L119.36 32.5 L4.76 32.74 L-0.58 29.01 L0.31 9.63 L3.05 2.99 L7.17 -0.76" stroke="none" stroke-width="0" fill="#fff"></path><path d="M8.57 0 M8.57 0 C33.22 -2.2, 61.05 -2.99, 119.63 0 M8.57 0 C36.03 0.8, 61.03 -0.23, 119.63 0 M119.63 0 C126.81 -0.92, 128.35 2.95, 128.2 8.57 M119.63 0 C124.36 -0.9, 130.17 1.84, 128.2 8.57 M128.2 8.57 C128.39 11, 127.94 17.55, 128.2 25.7 M128.2 8.57 C128.18 14.35, 127.81 19.14, 128.2 25.7 M128.2 25.7 C127.18 31.28, 126.47 32.4, 119.63 34.27 M128.2 25.7 C129.63 33.37, 123.82 34.13, 119.63 34.27 M119.63 34.27 C94.5 35.12, 73.51 31.81, 8.57 34.27 M119.63 34.27 C95.98 33.96, 70.22 33.67, 8.57 34.27 M8.57 34.27 C3.72 35.92, 0.45 30.53, 0 25.7 M8.57 34.27 C2.6 36.4, -1.23 31.62, 0 25.7 M0 25.7 C0.36 19.78, -0.63 17.78, 0 8.57 M0 25.7 C-0.5 21.09, 0.6 16.84, 0 8.57 M0 8.57 C-0.08 2.35, 2.71 0.1, 8.57 0 M0 8.57 C-1.18 0.81, 3.77 1.64, 8.57 0" stroke="transparent" stroke-width="1" fill="none"></path></g><g stroke-linecap="round" transform="translate(10 10) rotate(0 73.41120523174158 42.94181574515281)"><path d="M21.61 -0.29 L124.09 0.15 L139.23 2 L144.76 8.69 L147.6 14.61 L145.42 63.76 L144.17 77.61 L137.6 83.99 L125.09 86.08 L20.5 85 L8.71 83.3 L4.5 75.83 L1.43 68.85 L-0.95 17.88 L4 6.69 L10.23 1.68 L22.23 -1.1" stroke="none" stroke-width="0" fill="#15aabf"></path><path d="M21.47 0 M21.47 0 C48.33 0.1, 70.4 0.2, 125.35 0 M21.47 0 C48.09 -0.84, 77.01 -1.08, 125.35 0 M125.35 0 C141.47 -1.29, 148.69 5.37, 146.82 21.47 M125.35 0 C139.58 -0.79, 147.11 7.46, 146.82 21.47 M146.82 21.47 C147.67 32.5, 147.98 40.53, 146.82 64.41 M146.82 21.47 C146.94 30.14, 147.74 39.91, 146.82 64.41 M146.82 64.41 C148.51 78.7, 141.43 84.58, 125.35 85.88 M146.82 64.41 C146.35 80.62, 140.71 85.1, 125.35 85.88 M125.35 85.88 C99.14 84.72, 69.9 86.6, 21.47 85.88 M125.35 85.88 C93.36 86.61, 60.53 85.62, 21.47 85.88 M21.47 85.88 C6.72 85.38, 1.57 80, 0 64.41 M21.47 85.88 C5.99 88.08, 2 79.21, 0 64.41 M0 64.41 C0.17 48.69, -0.63 32.04, 0 21.47 M0 64.41 C-0.9 52.33, -1.24 39.29, 0 21.47 M0 21.47 C1.3 5.69, 5.2 -1.71, 21.47 0 M0 21.47 C1.52 8.26, 9.41 0.47, 21.47 0" stroke="#0b7285" stroke-width="1" fill="none"></path></g><g transform="translate(26.547878023823614 16.435652150962937) rotate(0 41 11.5)"><text x="0" y="16" font-family="Virgil, Segoe UI Emoji" font-size="17.72382154673737px" fill="#fff" text-anchor="start" style="white-space: pre;" direction="ltr">tree_sha</text></g><g transform="translate(55.29792398174163 44.72697199515284) rotate(0 29.5 17.5)"><text x="29.5" y="25" font-family="Virgil, Segoe UI Emoji" font-size="28px" fill="#fff" text-anchor="middle" style="white-space: pre;" direction="ltr">tree</text></g><g stroke-linecap="round" transform="translate(11.565357268258367 196.80818425484722) rotate(0 73.41120523174158 42.94181574515284)"><path d="M20.79 1.68 L126.47 -1.29 L136.76 2.24 L145.7 7.33 L147.19 16.3 L146.55 63.38 L144.1 76.6 L136.61 84.66 L125.22 83.91 L22.17 86.94 L9.48 84.14 L3.69 76.47 L-1.13 68.59 L-0.31 16.78 L4.69 9.86 L8.33 1.6 L22.35 -0.28" stroke="none" stroke-width="0" fill="#868e96"></path><path d="M21.47 0 M21.47 0 C61.46 0.31, 97.86 0.86, 125.35 0 M21.47 0 C60.83 -0.53, 101.57 0.82, 125.35 0 M125.35 0 C141.62 0.67, 146.99 8.66, 146.82 21.47 M125.35 0 C140.89 -2.24, 148.78 6.8, 146.82 21.47 M146.82 21.47 C148.35 38, 148.86 53.88, 146.82 64.41 M146.82 21.47 C147.15 35.47, 147.27 48.34, 146.82 64.41 M146.82 64.41 C147.97 76.93, 141.65 86.33, 125.35 85.88 M146.82 64.41 C146.57 77, 140.4 85.18, 125.35 85.88 M125.35 85.88 C98.45 86.49, 69.9 85.45, 21.47 85.88 M125.35 85.88 C91.37 86.43, 59.48 86.36, 21.47 85.88 M21.47 85.88 C8.39 85.21, 0.21 78.61, 0 64.41 M21.47 85.88 C8.88 83.76, 1.11 80.02, 0 64.41 M0 64.41 C-2.25 52.14, -1.04 44.07, 0 21.47 M0 64.41 C0.85 52.08, -0.54 41.08, 0 21.47 M0 21.47 C0.84 5.91, 6.56 -0.44, 21.47 0 M0 21.47 C-1.94 8.54, 9.3 -1.18, 21.47 0" stroke="#868e96" stroke-width="1" fill="none"></path></g><g transform="translate(27.91401654208198 209.55243015581016) rotate(0 48.5 11.5)"><text x="0" y="16" font-family="Virgil, Segoe UI Emoji" font-size="17.72382154673737px" fill="#fff" text-anchor="start" style="white-space: pre;" direction="ltr">blob_sha_1</text></g><g transform="translate(41.0546875 240.953125) rotate(0 43.5 10)"><text x="43.5" y="14" font-family="Virgil, Segoe UI Emoji" font-size="16px" fill="#fff" text-anchor="middle" style="white-space: pre;" direction="ltr">"content_1"</text></g><g stroke-linecap="round" transform="translate(21.91796875 125.80101766157895) rotate(0 64.09765625 17.134765625)"><path d="M9.51 1.64 L122.77 0.52 L127.26 4.68 L129.41 29.2 L126.03 32.49 L120.14 35.72 L6.74 34.34 L1.77 27.56 L-1.82 8.25 L3.51 3.5 L9 0.26" stroke="none" stroke-width="0" fill="#fff"></path><path d="M8.57 0 M8.57 0 C42.1 0.58, 77.52 -0.58, 119.63 0 M8.57 0 C34.56 0.91, 58.2 -0.13, 119.63 0 M119.63 0 C125.73 0.74, 130.15 3.7, 128.2 8.57 M119.63 0 C126.83 -1.56, 128.27 3.98, 128.2 8.57 M128.2 8.57 C129.77 11.47, 129.4 15.88, 128.2 25.7 M128.2 8.57 C128.86 12.69, 128.16 17.05, 128.2 25.7 M128.2 25.7 C129.67 31.41, 126.18 35.73, 119.63 34.27 M128.2 25.7 C126.97 29.91, 125.45 34.93, 119.63 34.27 M119.63 34.27 C98.75 35.33, 75.35 34.34, 8.57 34.27 M119.63 34.27 C86.83 33.97, 56.11 35.72, 8.57 34.27 M8.57 34.27 C1.63 35.75, -1.5 31.12, 0 25.7 M8.57 34.27 C1.58 36.24, -0.39 32.24, 0 25.7 M0 25.7 C0.86 20.57, -0.28 11.04, 0 8.57 M0 25.7 C-0.13 18.28, -0.48 13.21, 0 8.57 M0 8.57 C-0.22 1.09, 3.86 -0.99, 8.57 0 M0 8.57 C-0.72 3.95, 3.62 2.21, 8.57 0" stroke="transparent" stroke-width="1" fill="none"></path></g><g transform="translate(34.3046875 131.02734375) rotate(0 49.5 12.5)"><text x="0" y="18" font-family="Virgil, Segoe UI Emoji" font-size="20px" fill="#868e96" text-anchor="start" style="white-space: pre;" direction="ltr">filename_1</text></g></svg>